<svg width="545" height="541" xmlns="http://www.w3.org/2000/svg" xmlns:xlink="http://www.w3.org/1999/xlink" xml:space="preserve" overflow="hidden"><g transform="translate(-2429 -760)"><g><path d="M2603.5 850C2603.5 877.338 2644.24 899.5 2694.5 899.5 2744.76 899.5 2785.5 877.338 2785.5 850 2785.5 822.662 2826.24 800.5 2876.5 800.5 2926.76 800.5 2967.5 822.662 2967.5 850L2967.5 1246C2967.5 1218.66 2926.76 1196.5 2876.5 1196.5 2826.24 1196.5 2785.5 1218.66 2785.5 1246 2785.5 1273.34 2744.76 1295.5 2694.5 1295.5 2644.24 1295.5 2603.5 1273.34 2603.5 1246Z" stroke="#042433" stroke-width="6.875" stroke-linecap="butt" stroke-linejoin="miter" stroke-miterlimit="8" stroke-opacity="1" fill="#F5F5F5" fill-rule="evenodd" fill-opacity="1"/><path d="M2434.5 829.375C2434.5 863.548 2545.31 891.251 2682 891.251 2818.69 891.251 2929.5 863.548 2929.5 829.375L2929.5 1232.63C2929.5 1266.8 2818.69 1294.5 2682 1294.5 2545.31 1294.5 2434.5 1266.8 2434.5 1232.63Z" fill="#FFFFFF" fill-rule="evenodd" fill-opacity="1"/><path d="M2434.5 829.375C2434.5 795.203 2545.31 767.5 2682 767.5 2818.69 767.5 2929.5 795.203 2929.5 829.375 2929.5 863.548 2818.69 891.251 2682 891.251 2545.31 891.251 2434.5 863.548 2434.5 829.375Z" fill="#FFFFFF" fill-rule="evenodd" fill-opacity="1"/><path d="M2929.5 829.375C2929.5 863.548 2818.69 891.251 2682 891.251 2545.31 891.251 2434.5 863.548 2434.5 829.375 2434.5 795.203 2545.31 767.5 2682 767.5 2818.69 767.5 2929.5 795.203 2929.5 829.375L2929.5 1232.63C2929.5 1266.8 2818.69 1294.5 2682 1294.5 2545.31 1294.5 2434.5 1266.8 2434.5 1232.63L2434.5 829.375" stroke="#042433" stroke-width="6.875" stroke-linecap="butt" stroke-linejoin="miter" stroke-miterlimit="8" stroke-opacity="1" fill="none" fill-rule="evenodd"/><path d="M2608 824.5C2608 810.969 2644.94 800 2690.5 800 2736.06 800 2773 810.969 2773 824.5 2773 838.031 2736.06 849 2690.5 849 2644.94 849 2608 838.031 2608 824.5Z" fill="#000000" fill-rule="evenodd" fill-opacity="1"/></g></g></svg>