<svg width="618" height="541" xmlns="http://www.w3.org/2000/svg" xmlns:xlink="http://www.w3.org/1999/xlink" xml:space="preserve" overflow="hidden"><g transform="translate(-2530 -765)"><g><path d="M2778.5 843C2778.5 870.338 2819.35 892.5 2869.75 892.5 2920.15 892.5 2961 870.338 2961 843 2961 815.662 3001.85 793.5 3052.25 793.5 3102.65 793.5 3143.5 815.662 3143.5 843L3143.5 1239C3143.5 1211.66 3102.65 1189.5 3052.25 1189.5 3001.85 1189.5 2961 1211.66 2961 1239 2961 1266.34 2920.15 1288.5 2869.75 1288.5 2819.35 1288.5 2778.5 1266.34 2778.5 1239Z" stroke="#042433" stroke-width="6.875" stroke-linecap="butt" stroke-linejoin="miter" stroke-miterlimit="8" stroke-opacity="1" fill="#FFFFFF" fill-rule="evenodd" fill-opacity="1"/><path d="M2536.5 833.375C2536.5 867.547 2647.31 895.25 2784 895.25 2920.69 895.25 3031.5 867.547 3031.5 833.375L3031.5 1237.62C3031.5 1271.8 2920.69 1299.5 2784 1299.5 2647.31 1299.5 2536.5 1271.8 2536.5 1237.62Z" fill="#FFFFFF" fill-rule="evenodd" fill-opacity="1"/><path d="M2536.5 833.375C2536.5 799.202 2647.31 771.5 2784 771.5 2920.69 771.5 3031.5 799.202 3031.5 833.375 3031.5 867.547 2920.69 895.25 2784 895.25 2647.31 895.25 2536.5 867.547 2536.5 833.375Z" fill="#FFFFFF" fill-rule="evenodd" fill-opacity="1"/><path d="M3031.5 833.375C3031.5 867.547 2920.69 895.25 2784 895.25 2647.31 895.25 2536.5 867.547 2536.5 833.375 2536.5 799.202 2647.31 771.5 2784 771.5 2920.69 771.5 3031.5 799.202 3031.5 833.375L3031.5 1237.62C3031.5 1271.8 2920.69 1299.5 2784 1299.5 2647.31 1299.5 2536.5 1271.8 2536.5 1237.62L2536.5 833.375" stroke="#042433" stroke-width="6.875" stroke-linecap="butt" stroke-linejoin="miter" stroke-miterlimit="8" stroke-opacity="1" fill="none" fill-rule="evenodd"/><path d="M2705 833.5C2705 819.969 2741.94 809 2787.5 809 2833.06 809 2870 819.969 2870 833.5 2870 847.031 2833.06 858 2787.5 858 2741.94 858 2705 847.031 2705 833.5Z" fill="#000000" fill-rule="evenodd" fill-opacity="1"/></g></g></svg>